<svg width="80" height="80" viewBox="0 0 80 80" fill="none" xmlns="http://www.w3.org/2000/svg">
<path d="M25.6178 32.3054L16.1841 40.0003L25.6178 47.6952C25.9306 47.9462 26.1897 48.2554 26.3799 48.6048C26.5701 48.9543 26.6877 49.3372 26.7261 49.7314C26.7644 50.1256 26.7226 50.5233 26.6031 50.9016C26.4836 51.2799 26.2889 51.6313 26.03 51.9356C25.7711 52.2398 25.4532 52.4909 25.0947 52.6743C24.7362 52.8577 24.3442 52.9698 23.9412 53.0042C23.5382 53.0385 23.1323 52.9945 22.7468 52.8745C22.3613 52.7545 22.0039 52.561 21.6952 52.3052L9.43706 42.3053C9.09182 42.0238 8.81405 41.6713 8.62342 41.273C8.4328 40.8747 8.33398 40.4402 8.33398 40.0003C8.33398 39.5604 8.4328 39.126 8.62342 38.7276C8.81405 38.3293 9.09182 37.9769 9.43706 37.6954L21.6952 27.6955C22.3205 27.1938 23.1231 26.9544 23.928 27.0293C24.7328 27.1043 25.4748 27.4876 25.9923 28.0958C26.5098 28.7039 26.7608 29.4876 26.6906 30.2761C26.6205 31.0646 26.2349 31.794 25.6178 32.3054ZM70.5642 37.6954L58.3061 27.6955C57.9974 27.4396 57.64 27.2461 57.2545 27.1262C56.869 27.0062 56.4631 26.9621 56.0601 26.9965C55.6571 27.0308 55.2651 27.1429 54.9066 27.3263C54.5481 27.5097 54.2302 27.7608 53.9713 28.0651C53.7124 28.3693 53.5177 28.7207 53.3982 29.0991C53.2787 29.4774 53.2369 29.8751 53.2752 30.2693C53.3136 30.6635 53.4312 31.0464 53.6214 31.3958C53.8116 31.7453 54.0707 32.0544 54.3835 32.3054L63.8172 40.0003L54.3835 47.6952C54.0707 47.9462 53.8116 48.2554 53.6214 48.6048C53.4312 48.9543 53.3136 49.3372 53.2752 49.7314C53.2369 50.1256 53.2787 50.5233 53.3982 50.9016C53.5177 51.2799 53.7124 51.6313 53.9713 51.9356C54.2302 52.2398 54.5481 52.4909 54.9066 52.6743C55.2651 52.8577 55.6571 52.9698 56.0601 53.0042C56.4631 53.0385 56.869 52.9945 57.2545 52.8745C57.64 52.7545 57.9974 52.561 58.3061 52.3052L70.5642 42.3053C70.9095 42.0238 71.1873 41.6713 71.3779 41.273C71.5685 40.8747 71.6673 40.4402 71.6673 40.0003C71.6673 39.5604 71.5685 39.126 71.3779 38.7276C71.1873 38.3293 70.9095 37.9769 70.5642 37.6954ZM49.2198 15.1806C48.8415 15.046 48.4398 14.9856 48.0377 15.0029C47.6355 15.0202 47.2408 15.1149 46.8761 15.2816C46.5113 15.4483 46.1837 15.6837 45.9119 15.9744C45.6401 16.265 45.4295 16.6053 45.2921 16.9756L28.9479 60.975C28.6709 61.7226 28.7084 62.5473 29.0522 63.2678C29.396 63.9883 30.018 64.5457 30.7815 64.8175C31.1167 64.9387 31.4713 65.0005 31.8286 65C32.4578 65.0001 33.0717 64.8106 33.5871 64.4573C34.1025 64.104 34.4943 63.6039 34.7092 63.025L51.0534 19.0256C51.191 18.6553 51.2527 18.2621 51.235 17.8684C51.2173 17.4747 51.1205 17.0883 50.9502 16.7313C50.78 16.3742 50.5395 16.0535 50.2426 15.7874C49.9457 15.5214 49.5981 15.3152 49.2198 15.1806Z" fill="white"/>
</svg>
